<?xml version="1.0" standalone="no"?>
<!DOCTYPE svg PUBLIC "-//W3C//DTD SVG 20010904//EN"
 "http://www.w3.org/TR/2001/REC-SVG-20010904/DTD/svg10.dtd">
<svg version="1.0" xmlns="http://www.w3.org/2000/svg"
 width="700.000000pt" height="700.000000pt" viewBox="0 0 700.000000 700.000000"
 preserveAspectRatio="xMidYMid meet">
<metadata>
Created by potrace 1.14, written by Peter Selinger 2001-2017
</metadata>
<g transform="translate(0.000000,700.000000) scale(0.100000,-0.100000)"
fill="#000000" stroke="none">
<path d="M1320 6993 c-74 -9 -238 -45 -315 -71 -119 -39 -298 -133 -405 -212
-207 -154 -392 -389 -485 -615 -31 -74 -66 -189 -88 -285 l-22 -95 -2 -2185
c-2 -2144 -2 -2187 18 -2295 26 -145 69 -281 125 -396 46 -94 136 -238 184
-293 156 -180 303 -297 497 -395 73 -36 229 -94 290 -106 16 -3 39 -8 53 -11
142 -32 149 -32 2350 -31 2067 2 2190 3 2270 20 336 72 567 197 798 435 152
156 275 362 337 562 40 131 43 142 50 190 4 25 11 70 15 100 12 76 11 4309 -1
4388 -11 80 -18 117 -29 168 -12 53 -68 221 -85 254 -7 14 -25 50 -40 80 -59
118 -161 256 -270 365 -218 219 -496 364 -797 414 -108 18 -201 19 -2263 18
-1182 0 -2166 -2 -2185 -4z"/>
</g>
</svg>
